<?xml version="1.0" encoding="utf-8"?>
<!-- Generator: Adobe Illustrator 28.0.0, SVG Export Plug-In . SVG Version: 6.00 Build 0)  -->
<svg version="1.1" id="Layer_1" xmlns="http://www.w3.org/2000/svg" xmlns:xlink="http://www.w3.org/1999/xlink" x="0px" y="0px"
	 viewBox="0 0 200 40" style="enable-background:new 0 0 200 40;" xml:space="preserve">
<g>
	<path style="fill:#61483A;" d="M51.6,31.2V28l2.4-0.5V12.2l-2.4-0.5V8.5h10v3.2l-2.2,0.5v15.3l2.2,0.5v3.2L51.6,31.2L51.6,31.2z
		 M58,26.2L55.2,23l11.3-11.2l0,0L64,11.7V8.5h10.6v3.2l-2.1,0.4L58,26.2z M64.5,31.2V28l2.3-0.2h0l-5.5-7.5l3.8-3.4l8,10.7l2.3,0.4
		v3.2L64.5,31.2L64.5,31.2z"/>
	<path style="fill:#61483A;" d="M84.8,31.5c-1.7,0-3.2-0.4-4.5-1.1c-1.2-0.7-2.2-1.7-2.8-3s-1-2.8-1-4.5v-0.3c0-1.7,0.3-3.2,1-4.5
		c0.7-1.3,1.6-2.3,2.8-3c1.2-0.7,2.7-1.1,4.4-1.1c1.7,0,3.2,0.4,4.4,1.1c1.2,0.7,2.2,1.7,2.8,3c0.7,1.3,1,2.8,1,4.5v0.3
		c0,1.7-0.3,3.2-1,4.5c-0.7,1.3-1.6,2.3-2.8,3C87.9,31.2,86.5,31.5,84.8,31.5z M84.8,27.4c0.7,0,1.2-0.2,1.6-0.5s0.7-0.9,0.9-1.5
		c0.2-0.7,0.3-1.5,0.3-2.4v-0.3c0-0.9-0.1-1.7-0.3-2.3s-0.5-1.2-0.9-1.5c-0.4-0.4-0.9-0.5-1.6-0.5c-0.7,0-1.2,0.2-1.6,0.5
		c-0.4,0.4-0.7,0.9-0.9,1.5S82,21.7,82,22.6v0.3c0,0.9,0.1,1.7,0.3,2.4s0.5,1.2,0.9,1.5C83.5,27.2,84.1,27.4,84.8,27.4z"/>
	<path style="fill:#61483A;" d="M100.6,31.2l-4.6-13.4l-1.9-0.3v-3.2h8.9v3.2l-1.5,0.3l1.8,6.4l0.3,1.3h0.1l0.4-1.3l2.4-6.4
		l-1.9-0.3v-3.2h8.9v3.2l-1.9,0.4l-5.1,13.3L100.6,31.2L100.6,31.2z"/>
	<path style="fill:#61483A;" d="M120.4,31.5c-1.6,0-3-0.5-4-1.4s-1.6-2.2-1.6-3.7c0-1.6,0.6-2.9,1.9-3.9c1.3-1,3.2-1.5,5.8-1.5h1.8
		v-1c0-0.7-0.2-1.2-0.6-1.7c-0.4-0.5-1-0.7-1.8-0.7c-0.3,0-0.7,0-1,0.1c-0.3,0.1-0.6,0.2-0.8,0.4l-0.4,2.2h-3.9l-0.1-4.7
		c1-0.4,2-0.8,3-1.1s2.2-0.5,3.5-0.5c2.3,0,4.1,0.5,5.5,1.6c1.3,1.1,2,2.6,2,4.5v6.2c0,0.2,0,0.5,0,0.7c0,0.2,0,0.5,0.1,0.7l1.8,0.3
		v3.2h-6.4c-0.1-0.2-0.3-0.4-0.4-0.8s-0.3-0.6-0.3-0.9c-0.5,0.6-1.1,1.1-1.7,1.5C122.2,31.4,121.4,31.5,120.4,31.5z M122.1,27.7
		c0.4,0,0.8-0.1,1.2-0.2c0.4-0.2,0.8-0.4,1-0.7v-2.4h-1.7c-0.7,0-1.3,0.2-1.7,0.5s-0.6,0.8-0.6,1.3c0,0.5,0.2,0.9,0.5,1.2
		C121.2,27.5,121.6,27.7,122.1,27.7z"/>
	<path style="fill:#61483A;" d="M132.6,31.2V28l2-0.5v-17l-2.4-0.5V6.8h7.9v20.7l2,0.5v3.2L132.6,31.2L132.6,31.2z M132.6,22.3V19
		l9.6-2.9v3.3L132.6,22.3z"/>
	<path style="fill:#A62604;" d="M162.3,31.5c-2,0-3.7-0.3-5.1-1s-2.6-1.5-3.4-2.8c-0.8-1.2-1.2-2.7-1.2-4.5V12.2l-2.3-0.5V8.5h10.2
		v3.2l-2.4,0.5v11.2c0,0.9,0.2,1.7,0.5,2.3c0.3,0.6,0.8,1,1.4,1.3c0.6,0.3,1.4,0.4,2.3,0.4c0.9,0,1.7-0.1,2.3-0.4
		c0.6-0.3,1.1-0.7,1.4-1.3s0.5-1.4,0.5-2.3V12.2l-2.3-0.5V8.5h10.2v3.2l-2.4,0.5v11.2c0,1.7-0.4,3.2-1.2,4.4s-1.9,2.2-3.4,2.8
		C165.9,31.2,164.2,31.5,162.3,31.5z"/>
	<path style="fill:#A62604;" d="M175.2,31.2V28l2.4-0.5V12.2l-2.4-0.5V8.5h10.2v3.2l-2.4,0.5v15.3l2.4,0.5v3.2L175.2,31.2
		L175.2,31.2z"/>
</g>
<g>
	<path style="fill:#A62604;" d="M39.8,30c0,3.3-2.7,6-6,6h-20c-3.3,0-6-2.7-6-6V10c0-3.3,2.7-6,6-6h20c3.3,0,6,2.7,6,6V30z"/>
</g>
<polygon style="fill:#E3A075;" points="29.8,30 27.9,31.2 27.4,31.5 27.2,31.9 26.5,32.2 23.8,32.5 20.1,32.2 17.8,30 17.8,30 
	17.8,25 17.8,18 23.8,18 29.8,18 29.8,25 "/>
<path style="fill:#F27405;" d="M19.8,32"/>
<path style="fill:#FFDEA6;" d="M16.5,30.3c1,0.9,2.3,1.5,3.6,1.8c0.1,0,0.2-0.1,0.1-0.2c-2.8-2.8-1.3-5.8-0.1-7.1
	c0.8-1,2-2.6,1.9-4.7c0-0.2,0.2-0.4,0.4-0.3c1.6,0.9,2.7,2.7,3,4.3c0.5-0.5,0.6-1.2,0.6-1.8c0-0.2,0.3-0.4,0.5-0.2
	c1.5,1.4,4.2,6.2-0.1,9.9c-0.1,0.1,0,0.3,0.1,0.2c1.3-0.3,2.5-0.9,3.6-1.7c6.9-5.5,2.4-15.1-0.5-18.3c-0.4-0.4-1.1-0.1-1.1,0.4
	c0,1.2-0.4,2.4-1.3,3.3c-0.7-2.9-2.9-6.2-6.2-7.8c-0.4-0.2-0.9,0.1-0.9,0.6c0.1,4-2.4,6.5-4.6,9.8C13.6,21.4,12.3,26.8,16.5,30.3
	L16.5,30.3z"/>
</svg>
