<?xml version="1.0" encoding="utf-8"?>
<!-- Generator: Adobe Illustrator 24.0.1, SVG Export Plug-In . SVG Version: 6.00 Build 0)  -->
<svg version="1.1" xmlns="http://www.w3.org/2000/svg" xmlns:xlink="http://www.w3.org/1999/xlink" x="0px" y="0px"
	 viewBox="0 0 200 40" style="enable-background:new 0 0 200 40;" xml:space="preserve">
<style type="text/css">
	.st0{fill:#A62604;}
	.st1{fill:#261210;}
</style>
<g id="Layer_1">
	<g>
		<path class="st0" d="M12.42,15.09c-0.17,0-0.34-0.07-0.48-0.2l-1.35-1.35c-0.26-0.26-0.26-0.69,0-0.95c0.26-0.26,0.69-0.26,0.95,0
			l1.35,1.35c0.26,0.26,0.26,0.69,0,0.95C12.76,15.02,12.59,15.09,12.42,15.09L12.42,15.09z"/>
		<path class="st0" d="M9.05,15.09c-0.17,0-0.34-0.07-0.48-0.2l-1.35-1.35c-0.26-0.26-0.26-0.69,0-0.95c0.26-0.26,0.69-0.26,0.95,0
			l1.35,1.35c0.26,0.26,0.26,0.69,0,0.95C9.4,15.02,9.22,15.09,9.05,15.09z"/>
		<path class="st0" d="M24.54,15.09c-0.17,0-0.34-0.07-0.48-0.2c-0.26-0.26-0.26-0.69,0-0.95l1.35-1.35c0.26-0.26,0.69-0.26,0.95,0
			c0.26,0.26,0.26,0.69,0,0.95l-1.35,1.35C24.88,15.02,24.71,15.09,24.54,15.09L24.54,15.09z"/>
		<path class="st0" d="M27.9,15.09c-0.17,0-0.34-0.07-0.48-0.2c-0.26-0.26-0.26-0.69,0-0.95l1.35-1.35c0.26-0.26,0.69-0.26,0.95,0
			c0.26,0.26,0.26,0.69,0,0.95l-1.35,1.35C28.25,15.02,28.07,15.09,27.9,15.09L27.9,15.09z"/>
		<path class="st1" d="M15.11,15.76h6.73c0.37,0,0.67-0.3,0.67-0.67V4.31c0-0.37-0.3-0.67-0.67-0.67H17.8
			c-0.15,0-0.29,0.05-0.4,0.13l-2.69,2.02c-0.17,0.13-0.27,0.33-0.27,0.54v8.75C14.44,15.46,14.74,15.76,15.11,15.76L15.11,15.76z"
			/>
		<path class="st1" d="M25.88,35.96H12.42c-0.37,0-0.67-0.3-0.67-0.67s0.3-0.67,0.67-0.67h13.46c0.37,0,0.67,0.3,0.67,0.67
			S26.25,35.96,25.88,35.96z"/>
		<path class="st1" d="M27.56,21.82c-0.37,0-0.67-0.3-0.67-0.67c0-0.37,0.3-0.67,0.67-0.67c0.74,0,1.35-0.6,1.35-1.35
			c0-0.74-0.6-1.35-1.35-1.35c-0.37,0-0.67-0.3-0.67-0.67s0.3-0.67,0.67-0.67c1.49,0,2.69,1.21,2.69,2.69
			C30.26,20.61,29.05,21.82,27.56,21.82z"/>
		<path class="st1" d="M29.92,19.8c-0.3,0-0.57-0.2-0.65-0.5c-0.1-0.36,0.11-0.73,0.47-0.83l7.41-2.02c0.36-0.1,0.73,0.11,0.83,0.47
			c0.1,0.36-0.11,0.73-0.47,0.83l-7.41,2.02C30.04,19.79,29.98,19.8,29.92,19.8L29.92,19.8z"/>
		<path class="st1" d="M37.33,21.82c-0.06,0-0.12-0.01-0.18-0.02l-7.41-2.02c-0.36-0.1-0.57-0.47-0.47-0.83
			c0.1-0.36,0.47-0.57,0.83-0.47l7.41,2.02c0.36,0.1,0.57,0.47,0.47,0.83C37.89,21.62,37.62,21.82,37.33,21.82L37.33,21.82z"/>
		<path class="st1" d="M37.33,23.16h-4.84c0.08,0.21,0.12,0.44,0.12,0.67v6.02c3.02-0.34,5.39-2.91,5.39-6.02
			C38,23.47,37.7,23.16,37.33,23.16L37.33,23.16z"/>
		<path class="st1" d="M24.88,34.7c-0.06-0.04-1.07-0.67-1.62-2.11h-8.22c-0.55,1.45-1.56,2.08-1.62,2.11
			c-0.26,0.15-0.39,0.46-0.31,0.76c0.08,0.29,0.35,0.5,0.65,0.5h10.77c0.3,0,0.57-0.2,0.65-0.49C25.26,35.17,25.14,34.86,24.88,34.7
			L24.88,34.7z"/>
		<path class="st1" d="M30.59,23.16H7.7c-0.37,0-0.67,0.3-0.67,0.67v6.73c0,0.37,0.3,0.67,0.67,0.67h22.89
			c0.37,0,0.67-0.3,0.67-0.67v-6.73C31.27,23.47,30.97,23.16,30.59,23.16z"/>
		<path class="st1" d="M33.96,7.68h-10.1v4.04h10.1c0.37,0,0.67-0.3,0.67-0.67V8.35C34.63,7.98,34.33,7.68,33.96,7.68z"/>
		<path class="st1" d="M13.09,7.68h-0.67c-0.37,0-0.67,0.3-0.67,0.67v2.69c0,0.37,0.3,0.67,0.67,0.67h0.67V7.68z"/>
		<path class="st0" d="M9.72,21.14h14.81c0.37,0,0.67-0.3,0.67-0.67v-2.69c0-0.37-0.3-0.67-0.67-0.67H9.72
			c-0.37,0-0.67,0.3-0.67,0.67v2.69C9.05,20.84,9.35,21.14,9.72,21.14z"/>
	</g>
</g>
<g id="Layer_2">
	<g>
		<g>
			<path class="st1" d="M51.59,30.21V27l2.36-0.5V11.17l-2.36-0.5V7.46h10v3.22l-2.16,0.5V26.5l2.16,0.5v3.2H51.59z M58.01,25.25
				l-2.8-3.2l11.34-11.17l0.02-0.03L64,10.67V7.46h10.62v3.22l-2.14,0.45L58.01,25.25z M64.48,30.21V27l2.28-0.17h0.03l-5.47-7.48
				l3.83-3.39l7.97,10.66L75.45,27v3.2H64.48z"/>
			<path class="st1" d="M84.75,30.53c-1.74,0-3.23-0.36-4.46-1.09c-1.23-0.72-2.18-1.73-2.83-3.03s-0.98-2.8-0.98-4.51V21.6
				c0-1.69,0.33-3.18,0.98-4.47c0.65-1.29,1.59-2.3,2.82-3.04c1.23-0.73,2.71-1.1,4.44-1.1c1.74,0,3.22,0.36,4.45,1.09
				c1.22,0.73,2.16,1.74,2.81,3.03c0.65,1.29,0.98,2.79,0.98,4.48v0.31c0,1.7-0.33,3.2-0.98,4.49c-0.65,1.3-1.59,2.31-2.81,3.04
				C87.94,30.17,86.47,30.53,84.75,30.53z M84.75,26.36c0.67,0,1.2-0.18,1.6-0.54c0.4-0.36,0.69-0.87,0.88-1.54
				c0.18-0.67,0.27-1.46,0.27-2.38V21.6c0-0.89-0.09-1.66-0.27-2.32c-0.18-0.66-0.48-1.18-0.88-1.55c-0.41-0.37-0.95-0.55-1.62-0.55
				c-0.67,0-1.2,0.19-1.61,0.55c-0.41,0.37-0.7,0.89-0.88,1.55c-0.18,0.66-0.27,1.44-0.27,2.32v0.31c0,0.93,0.09,1.72,0.27,2.39
				c0.18,0.67,0.47,1.18,0.88,1.53C83.51,26.18,84.06,26.36,84.75,26.36z"/>
			<path class="st1" d="M100.62,30.21l-4.55-13.38l-1.88-0.31V13.3h8.89v3.2l-1.52,0.31l1.8,6.45l0.34,1.28h0.09l0.42-1.28
				l2.36-6.44l-1.95-0.33v-3.2h8.88v3.22l-1.94,0.38l-5.12,13.31H100.62z"/>
			<path class="st1" d="M120.42,30.53c-1.64,0-2.97-0.46-4-1.39c-1.03-0.93-1.55-2.16-1.55-3.7c0-1.58,0.64-2.88,1.91-3.89
				c1.28-1.01,3.21-1.52,5.79-1.52h1.77v-1c0-0.68-0.19-1.25-0.58-1.73c-0.39-0.47-1-0.71-1.83-0.71c-0.35,0-0.69,0.04-0.99,0.13
				c-0.31,0.09-0.59,0.22-0.84,0.38l-0.38,2.16h-3.86l-0.08-4.7c0.96-0.43,1.96-0.8,3.01-1.11s2.22-0.47,3.51-0.47
				c2.3,0,4.13,0.53,5.48,1.59c1.35,1.06,2.03,2.57,2.03,4.52v6.23c0,0.24,0,0.47,0.01,0.7c0,0.23,0.03,0.45,0.07,0.66l1.83,0.31
				v3.2h-6.41c-0.14-0.19-0.28-0.44-0.44-0.75s-0.27-0.62-0.33-0.94c-0.51,0.64-1.08,1.13-1.72,1.48
				C122.21,30.36,121.4,30.53,120.42,30.53z M122.11,26.66c0.4,0,0.79-0.08,1.2-0.24c0.4-0.16,0.75-0.4,1.04-0.73v-2.44h-1.7
				c-0.74,0-1.31,0.16-1.71,0.48c-0.4,0.32-0.6,0.75-0.6,1.28c0,0.51,0.17,0.91,0.5,1.2C121.16,26.51,121.59,26.66,122.11,26.66z"/>
			<path class="st1" d="M132.56,30.21V27l2-0.5V9.55l-2.38-0.5V5.83h7.86V26.5l1.98,0.5v3.2H132.56z M132.56,21.33v-3.34l9.56-2.92
				v3.34L132.56,21.33z"/>
			<path class="st0" d="M162.31,30.53c-1.96,0-3.66-0.32-5.12-0.95s-2.58-1.55-3.37-2.77c-0.79-1.22-1.19-2.71-1.19-4.47V11.17
				l-2.34-0.5V7.46h10.19v3.22l-2.36,0.5v11.17c0,0.92,0.16,1.67,0.48,2.27c0.32,0.6,0.79,1.04,1.41,1.34
				c0.62,0.29,1.37,0.44,2.26,0.44c0.92,0,1.68-0.15,2.3-0.44c0.62-0.29,1.09-0.74,1.41-1.34c0.32-0.6,0.48-1.36,0.48-2.27V11.17
				l-2.34-0.5V7.46h10.19v3.22l-2.36,0.5v11.17c0,1.73-0.41,3.21-1.22,4.43c-0.81,1.22-1.94,2.16-3.38,2.8
				C165.91,30.21,164.23,30.53,162.31,30.53z"/>
			<path class="st0" d="M175.22,30.21V27l2.36-0.5V11.17l-2.36-0.5V7.46h10.19v3.22l-2.36,0.5V26.5l2.36,0.5v3.2H175.22z"/>
		</g>
	</g>
</g>
</svg>
