<?xml version="1.0" encoding="utf-8"?>
<!-- Generator: Adobe Illustrator 28.0.0, SVG Export Plug-In . SVG Version: 6.00 Build 0)  -->
<svg version="1.1" xmlns="http://www.w3.org/2000/svg" xmlns:xlink="http://www.w3.org/1999/xlink" x="0px" y="0px"
	 viewBox="0 0 32 32" style="enable-background:new 0 0 32 32;" xml:space="preserve">
<g id="Layer_2">
	<g>
		<path style="fill:#A62604;" d="M32,24c0,4.4-3.6,8-8,8H8c-4.4,0-8-3.6-8-8V8c0-4.4,3.6-8,8-8h16c4.4,0,8,3.6,8,8V24z"/>
	</g>
</g>
<g id="Layer_3" style="display:none;">
	<polygon style="display:inline;fill:#E3A075;" points="22,26 20.2,27.2 19.7,27.5 19.4,27.9 18.8,28.2 16,28.5 12.4,28.2 10,26 
		10,26 10,21 10,14 16,14 22,14 22,21 	"/>
	<path style="display:inline;fill:#F27405;" d="M12,28"/>
</g>
<g id="Layer_1">
	<path style="fill:#FFDEA6;" d="M8.8,26.3c1,0.9,2.3,1.5,3.6,1.8c0.1,0,0.2-0.1,0.1-0.2c-2.8-2.8-1.3-5.8-0.1-7.1
		c0.8-1,2-2.6,1.9-4.7c0-0.2,0.2-0.4,0.4-0.3c1.6,0.9,2.7,2.7,3,4.3c0.5-0.5,0.6-1.2,0.6-1.8c0-0.2,0.3-0.4,0.5-0.2
		c1.5,1.4,4.2,6.2-0.1,9.9c-0.1,0.1,0,0.3,0.1,0.2c1.3-0.3,2.5-0.9,3.6-1.7c6.9-5.5,2.4-15.1-0.5-18.3c-0.4-0.4-1.1-0.1-1.1,0.4
		c0,1.2-0.4,2.4-1.3,3.3c-0.7-2.9-2.9-6.2-6.2-7.8c-0.4-0.2-0.9,0.1-0.9,0.6c0.1,4-2.4,6.5-4.6,9.8C5.9,17.4,4.6,22.8,8.8,26.3
		L8.8,26.3z"/>
</g>
</svg>
