<?xml version="1.0" encoding="UTF-8"?>
<svg width="1200pt" height="1200pt" version="1.1" viewBox="0 0 1200 1200" xmlns="http://www.w3.org/2000/svg">
 <g>
  <path d="m225 425c-6.3984 0-12.801-2.4492-17.676-7.3242l-50-50c-9.7734-9.7734-9.7734-25.574 0-35.352 9.7734-9.7734 25.574-9.7734 35.352 0l50 50c9.7734 9.7734 9.7734 25.574 0 35.352-4.875 4.875-11.277 7.3242-17.676 7.3242z"/>
  <path d="m100 425c-6.3984 0-12.801-2.4492-17.676-7.3242l-50-50c-9.7734-9.7734-9.7734-25.574 0-35.352 9.7734-9.7734 25.574-9.7734 35.352 0l50 50c9.7734 9.7734 9.7734 25.574 0 35.352-4.875 4.875-11.277 7.3242-17.676 7.3242z"/>
  <path d="m675 425c-6.3984 0-12.801-2.4492-17.676-7.3242-9.7734-9.7734-9.7734-25.574 0-35.352l50-50c9.7734-9.7734 25.574-9.7734 35.352 0 9.7734 9.7734 9.7734 25.574 0 35.352l-50 50c-4.875 4.875-11.277 7.3242-17.676 7.3242z"/>
  <path d="m800 425c-6.3984 0-12.801-2.4492-17.676-7.3242-9.7734-9.7734-9.7734-25.574 0-35.352l50-50c9.7734-9.7734 25.574-9.7734 35.352 0 9.7734 9.7734 9.7734 25.574 0 35.352l-50 50c-4.875 4.875-11.277 7.3242-17.676 7.3242z"/>
  <path d="m325 450h250c13.824 0 25-11.199 25-25v-400c0-13.801-11.176-25-25-25h-150c-5.4258 0-10.676 1.75-15 5l-100 74.977c-6.3008 4.7266-10 12.125-10 20v325.02c0 13.801 11.176 25 25 25z"/>
  <path d="m725 1200h-500c-13.824 0-25-11.199-25-25s11.176-25 25-25h500c13.824 0 25 11.199 25 25s-11.176 25-25 25z"/>
  <path d="m787.5 675c-13.824 0-25-11.199-25-25s11.176-25 25-25c27.574 0 50-22.426 50-50s-22.426-50-50-50c-13.824 0-25-11.199-25-25s11.176-25 25-25c55.148 0 100 44.852 100 100s-44.852 100-100 100z"/>
  <path d="m874.98 600c-10.977 0-21.074-7.3008-24.102-18.426-3.6484-13.324 4.2266-27.074 17.551-30.699l275-75c13.227-3.6016 27.051 4.1992 30.699 17.551 3.6484 13.324-4.2266 27.074-17.551 30.699l-275 75c-2.1992 0.60156-4.3984 0.875-6.5977 0.875z"/>
  <path d="m1150 675c-2.1992 0-4.3984-0.30078-6.6016-0.89844l-275-75c-13.324-3.6484-21.199-17.375-17.551-30.699 3.6484-13.352 17.477-21.148 30.699-17.551l275 75c13.324 3.6484 21.199 17.375 17.551 30.699-3.0195 11.148-13.121 18.449-24.098 18.449z"/>
  <path d="m1150 725h-179.6c2.8008 7.8516 4.6016 16.199 4.6016 25v223.52c112.32-12.5 200-107.93 200-223.52 0-13.801-11.176-25-25-25z"/>
  <path d="m687.75 1153.5c-2.1758-1.3008-39.648-24.699-60.176-78.5h-305.15c-20.523 53.773-57.977 77.148-60.023 78.398-9.7734 5.6992-14.477 17.199-11.551 28.125 2.9492 10.902 12.848 18.477 24.148 18.477h400c11.227 0 21.023-7.5234 24.023-18.352 3-10.824-1.6484-22.375-11.273-28.148z"/>
  <path d="m900 725h-850c-13.824 0-25 11.199-25 25v250c0 13.801 11.176 25 25 25h850c13.824 0 25-11.199 25-25v-250c0-13.801-11.176-25-25-25z"/>
  <path d="m1025 150h-375v150h375c13.824 0 25-11.199 25-25v-100c0-13.801-11.176-25-25-25z"/>
  <path d="m250 150h-25c-13.824 0-25 11.199-25 25v100c0 13.801 11.176 25 25 25h25z"/>
  <path d="m125 650h550c13.824 0 25-11.199 25-25v-100c0-13.801-11.176-25-25-25h-550c-13.824 0-25 11.199-25 25v100c0 13.801 11.176 25 25 25z"/>
 </g>
</svg>
